<svg width="20" height="20" viewBox="0 0 20 20" fill="none" xmlns="http://www.w3.org/2000/svg">
<g clip-path="url(#clip0_204_117)">
<path d="M18.3932 3.30806C16.218 1.13348 12.6795 1.13348 10.5049 3.30806L9.99983 3.81285L9.49504 3.30806C7.32046 1.13319 3.78163 1.13319 1.60706 3.30806C-0.523361 5.43848 -0.537195 8.81542 1.57498 11.1634C3.50142 13.3041 9.18304 17.929 9.4241 18.1248C9.58775 18.2578 9.78467 18.3226 9.9804 18.3226C9.98688 18.3226 9.99335 18.3226 9.99953 18.3223C10.202 18.3317 10.406 18.2622 10.575 18.1248C10.816 17.929 16.4982 13.3041 18.4253 11.1631C20.5371 8.81542 20.5233 5.43848 18.3932 3.30806ZM17.1125 9.98188C15.6105 11.6505 11.4818 15.0919 9.99953 16.3131C8.51724 15.0922 4.38944 11.6511 2.88773 9.98218C1.41427 8.34448 1.40044 6.01214 2.85564 4.55693C3.59885 3.81402 4.57488 3.44227 5.5509 3.44227C6.52693 3.44227 7.50295 3.81373 8.24616 4.55693L9.3564 5.66718C9.48856 5.79934 9.65516 5.87822 9.82999 5.90589C10.1137 5.96682 10.4216 5.88764 10.6424 5.66747L11.7532 4.55693C13.2399 3.07082 15.6582 3.07111 17.144 4.55693C18.5992 6.01214 18.5854 8.34448 17.1125 9.98188Z" fill="#222222"/>
</g>
<defs>
<clipPath id="clip0_204_117">
<rect width="20" height="20" fill="white"/>
</clipPath>
</defs>
</svg>
