<svg width="112" height="28" viewBox="0 0 112 28" fill="none" xmlns="http://www.w3.org/2000/svg">
<circle cx="98.55" cy="13" r="13" fill="#222222"/>
<path fill-rule="evenodd" clip-rule="evenodd" d="M14.2216 1.4999H13.755V17.5299C13.755 18.3699 13.6033 19.1049 13.3 19.7349C13.02 20.3416 12.5883 20.8199 12.005 21.1699C11.445 21.5199 10.7333 21.6949 9.87 21.6949C8.96 21.6949 8.21333 21.5199 7.63 21.1699C7.07 20.8199 6.63833 20.3416 6.335 19.7349C6.03167 19.1049 5.88 18.3699 5.88 17.5299V1.4999H0V17.9499C0 19.4899 0.245 20.8316 0.735 21.9749C1.225 23.0949 1.91333 24.0399 2.8 24.8099C3.71 25.5566 4.76 26.1049 5.95 26.4549C7.14 26.8282 8.435 27.0149 9.835 27.0149C11.1883 27.0149 12.46 26.8282 13.65 26.4549C14.8633 26.1049 15.9133 25.5566 16.8 24.8099C17.71 24.0399 18.41 23.0949 18.9 21.9749C19.4133 20.8316 19.67 19.4899 19.67 17.9499V6.94833L14.2216 1.4999ZM29.546 13.7499C29.546 12.6532 29.7093 11.6616 30.036 10.7749C30.1171 10.5548 30.2068 10.3419 30.3052 10.1362L25.917 5.74801C25.2625 6.59433 24.7222 7.53496 24.296 8.5699C23.6427 10.1332 23.316 11.8599 23.316 13.7499C23.316 15.6399 23.631 17.3782 24.261 18.9649C24.891 20.5516 25.801 21.9282 26.991 23.0949C28.181 24.2616 29.581 25.1716 31.191 25.8249C32.801 26.4549 34.5743 26.7699 36.511 26.7699C38.4244 26.7699 40.1744 26.4549 41.761 25.8249C42.7521 25.4227 43.6636 24.9233 44.4955 24.3266L40.2422 20.0732C39.9496 20.2618 39.6392 20.429 39.311 20.5749C38.471 20.9482 37.5377 21.1349 36.511 21.1349C35.461 21.1349 34.5043 20.9482 33.641 20.5749C32.801 20.2016 32.066 19.6882 31.436 19.0349C30.8293 18.3816 30.3627 17.5999 30.036 16.6899C29.7093 15.7799 29.546 14.7999 29.546 13.7499ZM42.881 16.7249C42.8514 16.8052 42.8207 16.8846 42.7888 16.963L47.3273 21.5014C47.8828 20.7258 48.3491 19.8803 48.726 18.9649C49.3793 17.3782 49.706 15.6399 49.706 13.7499C49.706 11.8599 49.3677 10.1332 48.691 8.5699C48.0144 6.98323 47.081 5.61824 45.891 4.4749C44.7243 3.33157 43.336 2.45657 41.726 1.8499C40.1394 1.24323 38.401 0.939902 36.511 0.939902C34.621 0.939902 32.871 1.24323 31.261 1.8499C30.405 2.17247 29.6083 2.57089 28.871 3.04518L33.0475 7.22171C33.2392 7.11452 33.437 7.01558 33.641 6.9249C34.5043 6.55157 35.461 6.3649 36.511 6.3649C37.561 6.3649 38.506 6.55157 39.346 6.9249C40.2094 7.29823 40.9444 7.81157 41.551 8.4649C42.1577 9.11823 42.6127 9.8999 42.916 10.8099C43.2193 11.6966 43.371 12.6766 43.371 13.7499C43.371 14.8232 43.2077 15.8149 42.881 16.7249ZM59.7611 13.5399L66.4461 23.7249L73.1311 13.5399L74.6361 25.9999H80.9011L76.8761 0.274902L66.4461 15.1849L55.9811 0.274902L52.0611 25.9999H58.2561L59.7611 13.5399Z" fill="#222222"/>
</svg>
