<svg width="16" height="18" viewBox="0 0 16 18" fill="none" xmlns="http://www.w3.org/2000/svg">
<path d="M14.8906 4.21875H12.748C12.4687 1.84648 10.4461 0 8 0C5.55393 0 3.53132 1.84648 3.25201 4.21875H1.10938C0.721039 4.21875 0.40625 4.53354 0.40625 4.92188V17.2969C0.40625 17.6852 0.721039 18 1.10938 18H14.8906C15.279 18 15.5938 17.6852 15.5938 17.2969V4.92188C15.5938 4.53354 15.279 4.21875 14.8906 4.21875ZM8 1.40625C9.66936 1.40625 11.0593 2.62459 11.3279 4.21875H4.67214C4.94074 2.62459 6.33064 1.40625 8 1.40625ZM14.1875 16.5938H1.8125V5.625H3.21875V7.73438C3.21875 8.12271 3.53354 8.4375 3.92188 8.4375C4.31021 8.4375 4.625 8.12271 4.625 7.73438V5.625H11.375V7.73438C11.375 8.12271 11.6898 8.4375 12.0781 8.4375C12.4665 8.4375 12.7812 8.12271 12.7812 7.73438V5.625H14.1875V16.5938Z" fill="white"/>
</svg>
