<svg width="18" height="20" viewBox="0 0 18 20" fill="none" xmlns="http://www.w3.org/2000/svg">
<path d="M16.6562 4.6875H14.2755C13.9652 2.05164 11.7179 0 9 0C6.28215 0 4.0348 2.05164 3.72445 4.6875H1.34375C0.912266 4.6875 0.5625 5.03727 0.5625 5.46875V19.2188C0.5625 19.6502 0.912266 20 1.34375 20H16.6562C17.0877 20 17.4375 19.6502 17.4375 19.2188V5.46875C17.4375 5.03727 17.0877 4.6875 16.6562 4.6875ZM9 1.5625C10.8548 1.5625 12.3992 2.91621 12.6976 4.6875H5.30238C5.60082 2.91621 7.14516 1.5625 9 1.5625ZM15.875 18.4375H2.125V6.25H3.6875V8.59375C3.6875 9.02523 4.03727 9.375 4.46875 9.375C4.90023 9.375 5.25 9.02523 5.25 8.59375V6.25H12.75V8.59375C12.75 9.02523 13.0998 9.375 13.5312 9.375C13.9627 9.375 14.3125 9.02523 14.3125 8.59375V6.25H15.875V18.4375Z" fill="#222222"/>
</svg>
