<svg width="18" height="16" viewBox="0 0 18 16" fill="none" xmlns="http://www.w3.org/2000/svg">
<path d="M16.5539 1.97731C14.5962 0.0201974 11.4115 0.0201974 9.45442 1.97731L8.99984 2.43162L8.54553 1.97731C6.58842 0.0199325 3.40347 0.0199325 1.44635 1.97731C-0.471025 3.89469 -0.483475 6.93394 1.41748 9.04708C3.15128 10.9737 8.26473 15.1362 8.48169 15.3123C8.62898 15.4321 8.8062 15.4904 8.98236 15.4904C8.98819 15.4904 8.99402 15.4904 8.99958 15.4901C9.18183 15.4986 9.36541 15.436 9.51747 15.3123C9.73443 15.1362 14.8484 10.9737 16.5827 9.04682C18.4834 6.93394 18.471 3.89469 16.5539 1.97731ZM15.4013 7.98376C14.0495 9.4855 10.3336 12.5828 8.99958 13.6819C7.66552 12.583 3.9505 9.48603 2.59895 7.98402C1.27284 6.51009 1.26039 4.41099 2.57008 3.1013C3.23896 2.43268 4.11739 2.09811 4.99581 2.09811C5.87423 2.09811 6.75266 2.43242 7.42154 3.1013L8.42076 4.10052C8.53971 4.21946 8.68964 4.29046 8.84699 4.31536C9.10236 4.37019 9.37945 4.29893 9.57813 4.10079L10.5779 3.1013C11.9159 1.7638 14.0924 1.76406 15.4296 3.1013C16.7393 4.41099 16.7268 6.51009 15.4013 7.98376Z" fill="white"/>
</svg>
