<svg width="46" height="52" viewBox="0 0 46 52" fill="none" xmlns="http://www.w3.org/2000/svg">
<path d="M45.0886 14.1089L45.087 14.0684C45.0644 13.5689 45.0493 13.0405 45.0402 12.4525C44.9977 9.5854 42.7185 7.21376 39.851 7.05349C33.8723 6.71984 29.2473 4.77032 25.2954 0.918493L25.2617 0.886358C23.9728 -0.295493 22.0284 -0.295493 20.739 0.886358L20.7053 0.918493C16.7535 4.77032 12.1285 6.71984 6.14978 7.05388C3.28263 7.21376 1.00303 9.5854 0.960583 12.4529C0.951855 13.0369 0.936383 13.5654 0.913769 14.0684L0.911389 14.1624C0.795148 20.259 0.650739 27.8464 3.189 34.7332C4.58469 38.5203 6.69845 41.8124 9.47118 44.5184C12.6291 47.6002 16.7654 50.0468 21.765 51.7901C21.9276 51.8468 22.0966 51.8928 22.2688 51.9273C22.5116 51.9757 22.756 51.9999 23.0004 51.9999C23.2448 51.9999 23.4895 51.9757 23.7319 51.9273C23.9041 51.8928 24.0743 51.8464 24.2378 51.7893C29.2314 50.0429 33.3633 47.5951 36.5185 44.5137C39.29 41.8068 41.4038 38.514 42.8007 34.726C45.3484 27.8186 45.2044 20.2169 45.0886 14.1089ZM39.9379 33.6703C37.2607 40.9288 31.7958 45.9137 23.2309 48.909C23.2003 48.9193 23.1678 48.9285 23.1341 48.9352C23.0456 48.9527 22.9556 48.9527 22.8659 48.9348C22.8326 48.9281 22.8 48.9193 22.7699 48.909C14.1958 45.9193 8.72732 40.9372 6.05218 33.6783C3.71268 27.3302 3.84519 20.3653 3.96222 14.2208L3.96302 14.1866C3.98682 13.6586 4.00269 13.1056 4.01142 12.4978C4.03046 11.2247 5.0445 10.1714 6.31997 10.1004C9.70327 9.91151 12.6755 9.2577 15.4066 8.10164C18.1341 6.94716 20.5565 5.31979 22.8115 3.12668C22.9262 3.02988 23.075 3.02948 23.1892 3.12668C25.4446 5.31979 27.867 6.94716 30.5941 8.10164C33.3252 9.2577 36.2975 9.91151 39.6812 10.1004C40.9567 10.1714 41.9707 11.2247 41.9893 12.4982C41.9985 13.1091 42.0143 13.6622 42.0381 14.1866C42.1548 20.3383 42.2841 27.3088 39.9379 33.6703Z" fill="#222222"/>
<path d="M22.9997 13.0417C15.8538 13.0417 10.0405 18.8554 10.0405 26.0009C10.0405 33.1467 15.8538 38.9604 22.9997 38.9604C30.1451 38.9604 35.9588 33.1467 35.9588 26.0009C35.9588 18.8554 30.1451 13.0417 22.9997 13.0417ZM22.9997 35.9088C17.5363 35.9088 13.0918 31.4642 13.0918 26.0009C13.0918 20.5375 17.5363 16.093 22.9997 16.093C28.4626 16.093 32.9072 20.5375 32.9072 26.0009C32.9072 31.4642 28.4626 35.9088 22.9997 35.9088Z" fill="#222222"/>
<path d="M26.7241 21.9776L20.7049 27.9968L19.0712 26.363C18.4753 25.7672 17.5093 25.7672 16.9134 26.363C16.3179 26.9589 16.3179 27.925 16.9134 28.5205L19.6262 31.2333C19.9242 31.5312 20.3146 31.68 20.7049 31.68C21.0953 31.68 21.4857 31.5312 21.7837 31.2333L28.8819 24.135C29.4774 23.5391 29.4774 22.5731 28.8819 21.9776C28.286 21.3813 27.32 21.3813 26.7241 21.9776Z" fill="#222222"/>
</svg>
