<svg width="18" height="18" viewBox="0 0 18 18" fill="none" xmlns="http://www.w3.org/2000/svg">
<g clip-path="url(#clip0_171_678)">
<path d="M16.8037 12.0285L11.9362 9.10027C11.2525 8.68897 10.492 8.42791 9.70506 8.32972V7.59625C9.70506 7.18302 9.94168 6.79836 10.3225 6.59223C11.2687 6.08013 11.8258 5.09383 11.7763 4.01814C11.7108 2.59335 10.5588 1.43964 9.13226 1.37414C7.53307 1.30122 6.2246 2.5744 6.2246 4.14846C6.2246 4.53683 6.53949 4.85159 6.92772 4.85159C7.31609 4.85159 7.63085 4.53683 7.63085 4.14846C7.63085 3.37008 8.2778 2.74249 9.06758 2.77888C9.76659 2.81101 10.3394 3.38381 10.3715 4.08282C10.3961 4.61483 10.1208 5.10249 9.65302 5.35558C8.81778 5.80767 8.29881 6.66625 8.29881 7.59625V8.32931C7.51521 8.42654 6.75743 8.6854 6.07559 9.09341L1.20123 12.0104H1.2011C0.461305 12.4532 0.000978114 13.2638 1.68088e-05 14.1261C-0.00149381 15.4906 1.1014 16.5962 2.46604 16.5979L15.5281 16.6131H15.5311C16.8911 16.6131 17.9984 15.5074 18 14.147C18.001 13.2848 17.5426 12.4729 16.8037 12.0285ZM15.5311 15.2069C15.5307 15.2069 15.5302 15.2069 15.5299 15.2069L2.46782 15.1916C1.8817 15.191 1.40558 14.7137 1.40627 14.1278C1.40668 13.7566 1.60484 13.4076 1.92331 13.217H1.92317L6.79767 10.3001C8.15613 9.48713 9.85324 9.48837 11.2113 10.3052L16.0789 13.2335C16.3968 13.4248 16.5942 13.7743 16.5938 14.1453C16.5931 14.7309 16.1165 15.2069 15.5311 15.2069Z" fill="black"/>
</g>
<defs>
<clipPath id="clip0_171_678">
<rect width="18" height="18" fill="white"/>
</clipPath>
</defs>
</svg>
