<svg width="30" height="26" viewBox="0 0 30 26" fill="none" xmlns="http://www.w3.org/2000/svg">
<path d="M17.6562 4.6875H15.2755C14.9652 2.05164 12.7179 0 10 0C7.28215 0 5.0348 2.05164 4.72445 4.6875H2.34375C1.91227 4.6875 1.5625 5.03727 1.5625 5.46875V19.2188C1.5625 19.6502 1.91227 20 2.34375 20H17.6562C18.0877 20 18.4375 19.6502 18.4375 19.2188V5.46875C18.4375 5.03727 18.0877 4.6875 17.6562 4.6875ZM10 1.5625C11.8548 1.5625 13.3992 2.91621 13.6976 4.6875H6.30238C6.60082 2.91621 8.14516 1.5625 10 1.5625ZM16.875 18.4375H3.125V6.25H4.6875V8.59375C4.6875 9.02523 5.03727 9.375 5.46875 9.375C5.90023 9.375 6.25 9.02523 6.25 8.59375V6.25H13.75V8.59375C13.75 9.02523 14.0998 9.375 14.5312 9.375C14.9627 9.375 15.3125 9.02523 15.3125 8.59375V6.25H16.875V18.4375Z" fill="#222222"/>
<circle cx="22" cy="18" r="8" fill="#B9A16B"/>
<path d="M21.57 18C21.93 17.99 22.21 18.11 22.42 18.34C22.63 18.57 22.74 18.82 22.74 19.1C22.74 19.69 22.31 20.1 21.51 20.1H21.52C21.29 20.1 21.05 20.02 20.8 19.86C20.55 19.69 20.38 19.51 20.29 19.3L19.39 19.78C19.75 20.57 20.53 21.1 21.52 21.1C22.19 21.1 22.73 20.93 23.16 20.59C23.59 20.24 23.8 19.77 23.8 19.18C23.8 18.81 23.7 18.47 23.51 18.14C23.32 17.81 23.07 17.59 22.75 17.47C23.23 17.19 23.54 16.69 23.54 16.18C23.54 15.71 23.37 15.29 23.02 14.94C22.67 14.59 22.23 14.4 21.7 14.37C20.89 14.32 20.14 14.7 19.78 15.33L20.56 15.9C20.79 15.55 21.1 15.38 21.48 15.39C21.67 15.39 21.82 15.41 21.93 15.46C22.31 15.61 22.47 15.9 22.41 16.31C22.34 16.7 22.05 17.06 21.57 17.05H20.84V18H21.57Z" fill="white"/>
</svg>
