<svg width="112" height="28" viewBox="0 0 112 28" fill="none" xmlns="http://www.w3.org/2000/svg">
<circle cx="99" cy="13" r="13" fill="#C32929"/>
<path fill-rule="evenodd" clip-rule="evenodd" d="M14.6716 1.5H14.205V17.53C14.205 18.7667 13.8784 19.77 13.225 20.54C12.5717 21.31 11.58 21.695 10.25 21.695C8.94337 21.695 7.96337 21.31 7.31004 20.54C6.65671 19.77 6.33004 18.7667 6.33004 17.53V1.5H0.415039V17.95C0.415039 19.49 0.660039 20.8317 1.15004 21.975C1.66337 23.1183 2.36337 24.0633 3.25004 24.81C4.16004 25.5333 5.21004 26.0817 6.40004 26.455C7.59004 26.8283 8.87337 27.015 10.25 27.015C11.6267 27.015 12.91 26.8283 14.1 26.455C15.3134 26.0817 16.3634 25.5333 17.25 24.81C18.16 24.0633 18.86 23.1183 19.35 21.975C19.8634 20.8317 20.12 19.49 20.12 17.95V6.94843L14.6716 1.5ZM29.9961 13.75C29.9961 15.1967 30.2761 16.48 30.8361 17.6C31.4194 18.6967 32.2244 19.56 33.2511 20.19C34.3011 20.82 35.5261 21.135 36.9261 21.135C38.3027 21.135 39.5044 20.82 40.5311 20.19C40.589 20.1553 40.6461 20.1198 40.7025 20.0836L44.94 24.3211C44.1149 24.9203 43.2052 25.4216 42.2111 25.825C40.6011 26.455 38.8394 26.77 36.9261 26.77C34.9894 26.77 33.2161 26.455 31.6061 25.825C29.9961 25.1717 28.5961 24.2617 27.4061 23.095C26.2394 21.9283 25.3294 20.5517 24.6761 18.965C24.0461 17.3783 23.7311 15.64 23.7311 13.75C23.7311 11.86 24.0577 10.1333 24.7111 8.57C25.1559 7.54235 25.7116 6.60544 26.3782 5.75928L30.7431 10.1242C30.2451 11.1771 29.9961 12.3858 29.9961 13.75ZM47.7531 21.4774L43.2391 16.9634C43.6271 16.0009 43.8211 14.9298 43.8211 13.75C43.8211 12.3033 43.5411 11.0317 42.9811 9.935C42.4211 8.815 41.6277 7.94 40.6011 7.31C39.5744 6.68 38.3494 6.365 36.9261 6.365C35.6195 6.365 34.4655 6.63933 33.4638 7.188L29.3424 3.0666C30.0737 2.59833 30.8633 2.20446 31.7111 1.885C33.3211 1.255 35.0594 0.939999 36.9261 0.939999C38.8161 0.939999 40.5544 1.255 42.1411 1.885C43.7511 2.49167 45.1511 3.36667 46.3411 4.51C47.5311 5.65333 48.4527 7.00667 49.1061 8.57C49.7594 10.1333 50.0861 11.86 50.0861 13.75C50.0861 15.64 49.7594 17.3783 49.1061 18.965C48.7464 19.8709 48.2954 20.7084 47.7531 21.4774ZM60.1762 13.505L58.7062 26H52.4762L56.4312 0.275L66.8612 15.22L77.3262 0.275L81.2812 26H75.0512L73.5812 13.505L66.8612 23.725L60.1762 13.505Z" fill="#222222"/>
</svg>
