<svg width="61" height="65" viewBox="0 0 61 65" fill="none" xmlns="http://www.w3.org/2000/svg">
<g clip-path="url(#clip0_171_299)">
<g filter="url(#filter0_d_171_299)">
<circle cx="28.5" cy="24.5" r="17.5" transform="rotate(-180 28.5 24.5)" fill="white"/>
</g>
<path d="M24.5683 24.5717L29.9646 19.1771C30.2014 18.941 30.585 18.941 30.8224 19.1771C31.0592 19.4133 31.0592 19.797 30.8224 20.0332L25.8541 24.9997L30.8218 29.9662C31.0586 30.2024 31.0586 30.586 30.8218 30.8228C30.585 31.059 30.2008 31.059 29.964 30.8228L24.5677 25.4283C24.3345 25.1945 24.3345 24.8048 24.5683 24.5717Z" fill="#767676"/>
</g>
<defs>
<filter id="filter0_d_171_299" x="-4" y="0" width="65" height="65" filterUnits="userSpaceOnUse" color-interpolation-filters="sRGB">
<feFlood flood-opacity="0" result="BackgroundImageFix"/>
<feColorMatrix in="SourceAlpha" type="matrix" values="0 0 0 0 0 0 0 0 0 0 0 0 0 0 0 0 0 0 127 0" result="hardAlpha"/>
<feOffset dy="8"/>
<feGaussianBlur stdDeviation="7.5"/>
<feColorMatrix type="matrix" values="0 0 0 0 0.54902 0 0 0 0 0.596078 0 0 0 0 0.643137 0 0 0 0.1 0"/>
<feBlend mode="normal" in2="BackgroundImageFix" result="effect1_dropShadow_171_299"/>
<feBlend mode="normal" in="SourceGraphic" in2="effect1_dropShadow_171_299" result="shape"/>
</filter>
<clipPath id="clip0_171_299">
<rect width="65" height="65" fill="white" transform="matrix(-1 -8.74228e-08 -8.74228e-08 1 61 0)"/>
</clipPath>
</defs>
</svg>
