<svg width="20" height="18" viewBox="0 0 20 18" fill="none" xmlns="http://www.w3.org/2000/svg">
<path d="M18.3932 2.30815C16.218 0.13358 12.6795 0.13358 10.5049 2.30815L9.99983 2.81294L9.49503 2.30815C7.32046 0.133285 3.78163 0.133285 1.60706 2.30815C-0.523361 4.43857 -0.537195 7.81552 1.57498 10.1635C3.50142 12.3042 9.18304 16.9291 9.4241 17.1249C9.58775 17.2579 9.78466 17.3226 9.9804 17.3226C9.98688 17.3226 9.99335 17.3226 9.99953 17.3224C10.202 17.3318 10.406 17.2623 10.575 17.1249C10.816 16.9291 16.4982 12.3042 18.4253 10.1632C20.5371 7.81552 20.5233 4.43857 18.3932 2.30815ZM17.1125 8.98198C15.6105 10.6506 11.4818 14.092 9.99953 15.3132C8.51724 14.0923 4.38944 10.6512 2.88773 8.98228C1.41427 7.34458 1.40044 5.01224 2.85564 3.55703C3.59885 2.81412 4.57487 2.44237 5.5509 2.44237C6.52693 2.44237 7.50295 2.81383 8.24616 3.55703L9.3564 4.66727C9.48856 4.79943 9.65516 4.87831 9.82999 4.90598C10.1137 4.96691 10.4216 4.88773 10.6424 4.66757L11.7532 3.55703C13.2399 2.07092 15.6582 2.07121 17.144 3.55703C18.5992 5.01224 18.5854 7.34458 17.1125 8.98198Z" fill="#222222"/>
</svg>
