<svg width="20" height="12" viewBox="0 0 20 12" fill="none" xmlns="http://www.w3.org/2000/svg">
<path d="M19.6428 5.54255C19.468 5.31901 15.3036 0.0671387 10.0002 0.0671387C4.69639 0.0671387 0.53197 5.31901 0.357205 5.54255L0 5.99976L0.357205 6.45697C0.53197 6.6805 4.69639 11.9326 10.0002 11.9326C15.3036 11.9326 19.468 6.6805 19.6428 6.45697L20 5.99976L19.6428 5.54255ZM10.0002 10.4476C6.27027 10.4476 3.01458 7.21817 1.9197 6.00001C3.01508 4.7816 6.27051 1.55265 10.0002 1.55265C13.7297 1.55265 16.9854 4.78185 18.0806 6.00001C16.9849 7.21841 13.7295 10.4476 10.0002 10.4476Z" fill="white"/>
<path d="M10.0001 1.93689C7.75931 1.93689 5.9364 3.75955 5.9364 6.00006C5.9364 8.24107 7.75931 10.064 10.0001 10.064C12.2408 10.064 14.0637 8.24107 14.0637 6.00006C14.0637 3.75955 12.2408 1.93689 10.0001 1.93689ZM10.0001 8.57847C8.57818 8.57847 7.42166 7.4217 7.42166 5.99981C7.42166 4.57842 8.57818 3.4219 10.0001 3.4219C11.4217 3.4219 12.5785 4.57842 12.5785 5.99981C12.5785 7.4217 11.4217 8.57847 10.0001 8.57847Z" fill="white"/>
</svg>
