<svg width="46" height="52" viewBox="0 0 46 52" fill="none" xmlns="http://www.w3.org/2000/svg">
<path d="M44.125 43.875H40.875V21.125C40.875 20.2276 40.1475 19.5 39.25 19.5H30.3125H22.1875H14.875V7.3125C14.875 5.36027 14.1146 3.52402 12.7328 2.14104C11.3509 0.760398 9.51463 0 7.5625 0C3.53037 0 0.25 3.28037 0.25 7.3125C0.25 8.20991 0.977492 8.9375 1.875 8.9375C2.77251 8.9375 3.5 8.20991 3.5 7.3125C3.5 5.07244 5.32244 3.25 7.5625 3.25C8.64719 3.25 9.66759 3.6727 10.4347 4.43909C11.2023 5.20731 11.625 6.22781 11.625 7.3125V21.125V39.2057C8.82462 39.9291 6.75 42.4768 6.75 45.5C6.75 49.0841 9.66586 52 13.25 52C16.2732 52 18.8209 49.9254 19.5443 47.125H39.25H44.125C45.0225 47.125 45.75 46.3974 45.75 45.5C45.75 44.6026 45.0225 43.875 44.125 43.875ZM28.6875 22.75V26H23.8125V22.75H28.6875ZM13.25 48.75C11.4579 48.75 10 47.2921 10 45.5C10 43.7079 11.4579 42.25 13.25 42.25C15.0421 42.25 16.5 43.7079 16.5 45.5C16.5 47.2921 15.0421 48.75 13.25 48.75ZM19.5443 43.875C18.9552 41.5942 17.1558 39.7948 14.875 39.2057V22.75H20.5625V27.625C20.5625 28.5224 21.29 29.25 22.1875 29.25H30.3125C31.21 29.25 31.9375 28.5224 31.9375 27.625V22.75H37.625V43.875H19.5443Z" fill="#222222"/>
</svg>
