<svg width="53" height="48" viewBox="0 0 53 48" fill="none" xmlns="http://www.w3.org/2000/svg">
<path d="M53 26.4375C53 22.2062 49.9411 18.7319 46.0792 18.4368C45.6211 16.9222 44.3835 15.7338 42.824 15.3216C41.7841 6.93425 34.8423 0.539062 26.5 0.539062C18.1577 0.539062 11.2159 6.93425 10.1761 15.3216C8.61664 15.7338 7.3789 16.9221 6.92095 18.4368C6.7868 18.4471 6.65367 18.4612 6.52159 18.4791V8.5625C6.52159 7.72116 5.82638 7.03906 4.96885 7.03906C4.11133 7.03906 3.41612 7.72116 3.41612 8.5625V19.6984C1.36268 21.1288 0 23.6143 0 26.4375C0 30.6688 3.05889 34.1432 6.92085 34.4382C7.37746 35.948 8.60867 37.1334 10.1612 37.5492C10.8227 41.3268 14.1828 44.2109 18.2188 44.2109H18.5778C19.2275 46.098 21.0477 47.4609 23.1875 47.4609H29.8125C32.4952 47.4609 34.6777 45.3196 34.6777 42.6875C34.6777 40.0554 32.4952 37.9141 29.8125 37.9141H23.1875C21.0477 37.9141 19.2275 39.277 18.5778 41.1641H18.2188C15.8707 41.1641 13.8908 39.5903 13.3156 37.4615C15.1425 36.8432 16.459 35.1404 16.459 33.1406V19.7344C16.459 17.7276 15.1334 16.02 13.2966 15.4072C14.2665 8.67808 19.8332 3.58594 26.5 3.58594C33.1668 3.58594 38.7335 8.67808 39.7034 15.4072C37.8666 16.02 36.541 17.7276 36.541 19.7344V33.1406C36.541 35.6607 38.6307 37.7109 41.1992 37.7109H41.6133C43.7224 37.7109 45.5076 36.3281 46.0792 34.4382C49.9411 34.1432 53 30.6688 53 26.4375ZM23.1875 40.9609H29.8125C30.7829 40.9609 31.5723 41.7355 31.5723 42.6875C31.5723 43.6395 30.7829 44.4141 29.8125 44.4141H23.1875C22.2171 44.4141 21.4277 43.6395 21.4277 42.6875C21.4277 41.7355 22.2171 40.9609 23.1875 40.9609ZM3.10547 26.4375C3.10547 24.0216 4.7022 21.9415 6.72852 21.5334V31.3415C4.7022 30.9335 3.10547 28.8534 3.10547 26.4375ZM13.3535 33.1406C13.3535 33.9806 12.657 34.6641 11.8008 34.6641H11.3867C10.5305 34.6641 9.83398 33.9806 9.83398 33.1406C9.83398 28.252 9.83398 24.2535 9.83398 19.7344C9.83398 18.8944 10.5305 18.2109 11.3867 18.2109H11.8008C12.657 18.2109 13.3535 18.8944 13.3535 19.7344V33.1406ZM43.166 33.1406C43.166 33.9806 42.4695 34.6641 41.6133 34.6641H41.1992C40.343 34.6641 39.6465 33.9806 39.6465 33.1406V19.7344C39.6465 18.8944 40.343 18.2109 41.1992 18.2109H41.6133C42.4695 18.2109 43.166 18.8944 43.166 19.7344V33.1406ZM46.2715 31.3416V21.5335C48.2978 21.9416 49.8945 24.0217 49.8945 26.4376C49.8945 28.8535 48.2978 30.9335 46.2715 31.3416Z" fill="#222222"/>
</svg>
