<svg width="227" height="70" viewBox="0 0 227 70" fill="none" xmlns="http://www.w3.org/2000/svg">
<rect width="227" height="70" rx="4" fill="#767676"/>
<path d="M77.693 29C78.941 29 79.929 28.584 80.644 27.752C81.359 26.907 81.723 25.841 81.723 24.541C81.723 23.228 81.359 22.162 80.631 21.317C79.916 20.472 78.928 20.043 77.693 20.043H74.222V29H77.693ZM75.431 21.174H77.693C78.59 21.174 79.292 21.486 79.773 22.123C80.267 22.747 80.514 23.553 80.514 24.541C80.514 25.516 80.267 26.322 79.773 26.946C79.292 27.557 78.59 27.869 77.693 27.869H75.431V21.174ZM82.9922 25.945C82.9922 26.894 83.3042 27.661 83.9152 28.246C84.5262 28.831 85.2802 29.13 86.1642 29.13C87.0482 29.13 87.8022 28.831 88.4132 28.246C89.0372 27.648 89.3492 26.881 89.3492 25.945C89.3492 25.009 89.0372 24.255 88.4262 23.67C87.8152 23.085 87.0612 22.799 86.1642 22.799C85.2672 22.799 84.5132 23.085 83.9022 23.67C83.2912 24.255 82.9922 25.009 82.9922 25.945ZM88.1662 25.945C88.1662 26.556 87.9712 27.05 87.5812 27.427C87.2042 27.804 86.7232 27.986 86.1642 27.986C85.6052 27.986 85.1242 27.804 84.7342 27.427C84.3572 27.05 84.1622 26.556 84.1622 25.945C84.1622 25.347 84.3572 24.866 84.7342 24.502C85.1242 24.138 85.6052 23.956 86.1642 23.956C86.7232 23.956 87.2042 24.138 87.5812 24.502C87.9712 24.866 88.1662 25.347 88.1662 25.945ZM99.8183 22.929H98.5573L97.0363 27.18L95.5153 22.929H94.3713L92.8503 27.18L91.3293 22.929H90.0683L92.3823 29H93.3443L94.9433 24.541L96.5943 29H97.5693L99.8183 22.929ZM102.263 25.724C102.263 24.528 103.03 23.956 103.979 23.956C104.811 23.956 105.318 24.567 105.318 25.568V29H106.501V25.49C106.501 23.774 105.669 22.799 104.161 22.799C103.42 22.799 102.614 23.163 102.263 23.839V22.929H101.08V29H102.263V25.724ZM108.405 29H109.588V19.627H108.405V29ZM111.163 25.945C111.163 26.894 111.475 27.661 112.086 28.246C112.697 28.831 113.451 29.13 114.335 29.13C115.219 29.13 115.973 28.831 116.584 28.246C117.208 27.648 117.52 26.881 117.52 25.945C117.52 25.009 117.208 24.255 116.597 23.67C115.986 23.085 115.232 22.799 114.335 22.799C113.438 22.799 112.684 23.085 112.073 23.67C111.462 24.255 111.163 25.009 111.163 25.945ZM116.337 25.945C116.337 26.556 116.142 27.05 115.752 27.427C115.375 27.804 114.894 27.986 114.335 27.986C113.776 27.986 113.295 27.804 112.905 27.427C112.528 27.05 112.333 26.556 112.333 25.945C112.333 25.347 112.528 24.866 112.905 24.502C113.295 24.138 113.776 23.956 114.335 23.956C114.894 23.956 115.375 24.138 115.752 24.502C116.142 24.866 116.337 25.347 116.337 25.945ZM125.074 29V22.929H123.904V23.839C123.527 23.176 122.656 22.799 121.772 22.799C120.914 22.799 120.186 23.085 119.588 23.67C118.99 24.255 118.691 25.009 118.691 25.958C118.691 26.894 118.99 27.661 119.588 28.246C120.186 28.831 120.914 29.13 121.772 29.13C122.656 29.13 123.501 28.74 123.904 28.064V29H125.074ZM123.891 25.945C123.891 26.569 123.696 27.063 123.306 27.427C122.916 27.791 122.435 27.973 121.876 27.973C121.317 27.973 120.849 27.778 120.472 27.401C120.095 27.024 119.9 26.53 119.9 25.945C119.9 25.36 120.082 24.879 120.459 24.515C120.836 24.138 121.317 23.956 121.876 23.956C122.409 23.956 122.877 24.138 123.28 24.489C123.683 24.84 123.891 25.334 123.891 25.945ZM133.034 29V19.627H131.851V23.839C131.448 23.163 130.629 22.799 129.706 22.799C128.848 22.799 128.12 23.085 127.535 23.67C126.95 24.255 126.651 25.009 126.651 25.958C126.651 26.894 126.95 27.661 127.535 28.246C128.133 28.831 128.861 29.13 129.719 29.13C130.603 29.13 131.448 28.74 131.851 28.064V29H133.034ZM129.823 23.956C130.356 23.956 130.824 24.138 131.227 24.489C131.63 24.84 131.838 25.334 131.838 25.945C131.838 26.556 131.643 27.05 131.24 27.427C130.85 27.791 130.382 27.973 129.823 27.973C129.264 27.973 128.796 27.778 128.419 27.401C128.042 27.024 127.86 26.53 127.86 25.945C127.86 25.36 128.042 24.879 128.419 24.515C128.796 24.138 129.264 23.956 129.823 23.956ZM137.988 25.945C137.988 26.894 138.3 27.661 138.911 28.246C139.522 28.831 140.276 29.13 141.16 29.13C142.044 29.13 142.798 28.831 143.409 28.246C144.033 27.648 144.345 26.881 144.345 25.945C144.345 25.009 144.033 24.255 143.422 23.67C142.811 23.085 142.057 22.799 141.16 22.799C140.263 22.799 139.509 23.085 138.898 23.67C138.287 24.255 137.988 25.009 137.988 25.945ZM143.162 25.945C143.162 26.556 142.967 27.05 142.577 27.427C142.2 27.804 141.719 27.986 141.16 27.986C140.601 27.986 140.12 27.804 139.73 27.427C139.353 27.05 139.158 26.556 139.158 25.945C139.158 25.347 139.353 24.866 139.73 24.502C140.12 24.138 140.601 23.956 141.16 23.956C141.719 23.956 142.2 24.138 142.577 24.502C142.967 24.866 143.162 25.347 143.162 25.945ZM147.103 25.724C147.103 24.528 147.87 23.956 148.819 23.956C149.651 23.956 150.158 24.567 150.158 25.568V29H151.341V25.49C151.341 23.774 150.509 22.799 149.001 22.799C148.26 22.799 147.454 23.163 147.103 23.839V22.929H145.92V29H147.103V25.724ZM158.107 20.641H156.924V22.929H155.832V23.93H156.924V29H158.107V23.93H159.394V22.929H158.107V20.641ZM161.918 25.724C161.918 25.126 162.1 24.684 162.477 24.398C162.854 24.099 163.283 23.956 163.764 23.956C164.609 23.956 165.194 24.58 165.194 25.568V29H166.377V25.49C166.39 23.787 165.441 22.799 163.92 22.799C163.543 22.799 163.153 22.89 162.75 23.072C162.36 23.241 162.087 23.501 161.918 23.839V19.627H160.735V29H161.918V25.724ZM169.056 25.49C169.199 24.489 169.953 23.865 170.98 23.865C171.968 23.865 172.683 24.489 172.826 25.49H169.056ZM173.996 25.945C173.996 24.996 173.71 24.242 173.138 23.67C172.579 23.085 171.851 22.799 170.98 22.799C170.096 22.799 169.355 23.085 168.757 23.67C168.172 24.242 167.873 24.996 167.873 25.945C167.873 26.894 168.172 27.661 168.757 28.246C169.355 28.831 170.096 29.13 170.98 29.13C172.189 29.13 173.268 28.558 173.775 27.518L173.281 27.336C173.047 27.245 172.878 27.167 172.761 27.128C172.436 27.713 171.76 28.064 171.019 28.064C169.979 28.064 169.199 27.414 169.056 26.413H173.983C173.996 26.322 173.996 26.166 173.996 25.945Z" fill="white"/>
<path d="M44.207 41.7305C43.0547 41.3789 42.0195 40.5586 41.1211 39.2695C40.2227 37.9805 39.7734 36.5156 39.7734 34.9141C39.7734 33.4297 40.2031 32.082 41.043 30.8711C41.5117 30.1875 42.2539 29.4258 43.2695 28.5664C42.6055 27.7461 41.9219 27.082 41.2383 26.6133C40.0273 25.7734 38.6406 25.3437 37.0781 25.3437C36.1211 25.3437 34.9883 25.5781 33.6992 26.0078C32.4102 26.457 31.4727 26.6719 30.9063 26.6719C30.457 26.6719 29.5586 26.4766 28.2109 26.0859C26.8438 25.6953 25.7109 25.5 24.7539 25.5C22.5078 25.5 20.6719 26.4375 19.207 28.3125C17.7422 30.207 17 32.6289 17 35.6172C17 38.8203 17.9766 42.082 19.8711 45.4414C21.8047 48.8008 23.7383 50.5 25.75 50.5C26.3945 50.5 27.2539 50.2852 28.3281 49.8359C29.3828 49.4063 30.3203 49.1914 31.1016 49.1914C31.9023 49.1914 32.8984 49.3867 34.0508 49.8164C35.2227 50.2266 36.1211 50.4414 36.7852 50.4414C38.4453 50.4414 40.125 49.1719 41.8047 46.6133C42.9375 44.9141 43.7188 43.2734 44.207 41.7305ZM36.8633 18.8203C36.8633 18.6836 36.8438 18.5664 36.8438 18.4297C36.8242 18.3125 36.7852 18.1758 36.7461 18C34.4805 18.5273 32.8398 19.4844 31.8633 20.8906C30.8867 22.2969 30.3789 23.9766 30.3398 25.9102C31.2578 25.832 31.9219 25.7148 32.3711 25.5781C33.0742 25.3437 33.7773 24.875 34.4805 24.1719C35.3008 23.3516 35.9063 22.4531 36.2969 21.4766C36.668 20.5195 36.8633 19.6211 36.8633 18.8203Z" fill="white"/>
<path d="M78.168 39.96L79.992 44.856H76.344L78.168 39.96ZM81.576 49H83.144L78.968 37.976H77.368L73.176 49H74.76L75.832 46.2H80.504L81.576 49ZM84.5285 41.528V52.632H85.9845V47.88C86.4485 48.712 87.5045 49.16 88.5925 49.16C89.6485 49.16 90.5285 48.808 91.2485 48.088C91.9685 47.368 92.3365 46.44 92.3365 45.288C92.3365 44.12 91.9685 43.176 91.2485 42.456C90.5285 41.736 89.6325 41.368 88.5925 41.368C87.5205 41.368 86.4805 41.864 85.9845 42.696V41.528H84.5285ZM86.0005 45.304C86.0005 44.536 86.2405 43.928 86.7045 43.48C87.1845 43.016 87.7605 42.792 88.4485 42.792C89.1365 42.792 89.6965 43.032 90.1605 43.496C90.6245 43.96 90.8645 44.568 90.8645 45.304C90.8645 46.76 89.8405 47.736 88.4485 47.736C87.7925 47.736 87.2325 47.528 86.7365 47.096C86.2405 46.664 86.0005 46.056 86.0005 45.304ZM94.2785 41.528V52.632H95.7345V47.88C96.1985 48.712 97.2545 49.16 98.3425 49.16C99.3985 49.16 100.279 48.808 100.999 48.088C101.719 47.368 102.087 46.44 102.087 45.288C102.087 44.12 101.719 43.176 100.999 42.456C100.279 41.736 99.3825 41.368 98.3425 41.368C97.2705 41.368 96.2305 41.864 95.7345 42.696V41.528H94.2785ZM95.7505 45.304C95.7505 44.536 95.9905 43.928 96.4545 43.48C96.9345 43.016 97.5105 42.792 98.1985 42.792C98.8865 42.792 99.4465 43.032 99.9105 43.496C100.375 43.96 100.615 44.568 100.615 45.304C100.615 46.76 99.5905 47.736 98.1985 47.736C97.5425 47.736 96.9825 47.528 96.4865 47.096C95.9905 46.664 95.7505 46.056 95.7505 45.304ZM104.029 49H105.485V37.464H104.029V49ZM108.879 44.68C109.055 43.448 109.983 42.68 111.247 42.68C112.463 42.68 113.343 43.448 113.519 44.68H108.879ZM114.959 45.24C114.959 44.072 114.607 43.144 113.903 42.44C113.215 41.72 112.319 41.368 111.247 41.368C110.159 41.368 109.247 41.72 108.511 42.44C107.791 43.144 107.423 44.072 107.423 45.24C107.423 46.408 107.791 47.352 108.511 48.072C109.247 48.792 110.159 49.16 111.247 49.16C112.735 49.16 114.063 48.456 114.687 47.176L114.079 46.952C113.791 46.84 113.583 46.744 113.439 46.696C113.039 47.416 112.207 47.848 111.295 47.848C110.015 47.848 109.055 47.048 108.879 45.816H114.943C114.959 45.704 114.959 45.512 114.959 45.24ZM120.582 45.816C120.582 46.712 120.95 47.496 121.686 48.168C122.422 48.824 123.334 49.16 124.438 49.16C125.478 49.16 126.326 48.888 126.982 48.344C127.638 47.8 128.022 47.112 128.118 46.28C128.326 44.552 127.27 43.352 125.174 42.824L123.734 42.472C122.694 42.216 122.166 41.704 122.166 40.936C122.166 40.44 122.374 40.04 122.774 39.736C123.19 39.432 123.67 39.272 124.23 39.272C125.446 39.272 126.31 39.992 126.31 41.08H127.798C127.798 40.104 127.462 39.336 126.79 38.744C126.118 38.152 125.27 37.848 124.246 37.848C123.27 37.848 122.438 38.136 121.734 38.728C121.03 39.304 120.678 40.04 120.678 40.952C120.678 42.408 121.574 43.368 123.366 43.832L124.79 44.184C125.942 44.44 126.742 45.064 126.662 46.152C126.518 47.064 125.766 47.768 124.438 47.768C123.766 47.768 123.206 47.576 122.758 47.176C122.31 46.776 122.086 46.312 122.07 45.816H120.582ZM132.076 38.712H130.62V41.528H129.276V42.76H130.62V49H132.076V42.76H133.66V41.528H132.076V38.712ZM134.704 45.24C134.704 46.408 135.088 47.352 135.84 48.072C136.592 48.792 137.52 49.16 138.608 49.16C139.696 49.16 140.624 48.792 141.376 48.072C142.144 47.336 142.528 46.392 142.528 45.24C142.528 44.088 142.144 43.16 141.392 42.44C140.64 41.72 139.712 41.368 138.608 41.368C137.504 41.368 136.576 41.72 135.824 42.44C135.072 43.16 134.704 44.088 134.704 45.24ZM141.072 45.24C141.072 45.992 140.832 46.6 140.352 47.064C139.888 47.528 139.296 47.752 138.608 47.752C137.92 47.752 137.328 47.528 136.848 47.064C136.384 46.6 136.144 45.992 136.144 45.24C136.144 44.504 136.384 43.912 136.848 43.464C137.328 43.016 137.92 42.792 138.608 42.792C139.296 42.792 139.888 43.016 140.352 43.464C140.832 43.912 141.072 44.504 141.072 45.24ZM145.922 46.28C145.922 44.168 146.61 42.76 147.97 42.76C148.354 42.76 148.722 42.84 149.074 43.016L149.298 41.656C149.026 41.464 148.594 41.368 148.002 41.368C146.978 41.368 146.29 41.976 145.922 43.208V41.528H144.466V49H145.922V46.28ZM151.551 44.68C151.727 43.448 152.655 42.68 153.919 42.68C155.135 42.68 156.015 43.448 156.191 44.68H151.551ZM157.631 45.24C157.631 44.072 157.279 43.144 156.575 42.44C155.887 41.72 154.991 41.368 153.919 41.368C152.831 41.368 151.919 41.72 151.183 42.44C150.463 43.144 150.095 44.072 150.095 45.24C150.095 46.408 150.463 47.352 151.183 48.072C151.919 48.792 152.831 49.16 153.919 49.16C155.407 49.16 156.735 48.456 157.359 47.176L156.751 46.952C156.463 46.84 156.255 46.744 156.111 46.696C155.711 47.416 154.879 47.848 153.967 47.848C152.687 47.848 151.727 47.048 151.551 45.816H157.615C157.631 45.704 157.631 45.512 157.631 45.24Z" fill="white"/>
</svg>
