<svg width="227" height="70" viewBox="0 0 227 70" fill="none" xmlns="http://www.w3.org/2000/svg">
<rect width="227" height="70" rx="4" fill="#767676"/>
<path d="M80.19 21.122C79.345 20.329 78.331 19.939 77.161 19.939C75.9 19.939 74.821 20.381 73.95 21.278C73.079 22.175 72.637 23.254 72.637 24.541C72.637 25.815 73.079 26.894 73.95 27.791C74.821 28.688 75.9 29.13 77.161 29.13C79.8 29.13 81.399 27.57 81.399 24.502H77.473V25.555H80.021C79.982 26.296 79.709 26.881 79.176 27.323C78.643 27.752 77.98 27.973 77.161 27.973C76.238 27.973 75.445 27.635 74.808 26.972C74.171 26.309 73.846 25.49 73.846 24.541C73.846 23.592 74.171 22.773 74.808 22.11C75.445 21.434 76.238 21.096 77.161 21.096C77.98 21.096 78.695 21.369 79.319 21.928L80.19 21.122ZM83.5942 25.49C83.7372 24.489 84.4912 23.865 85.5182 23.865C86.5062 23.865 87.2212 24.489 87.3642 25.49H83.5942ZM88.5342 25.945C88.5342 24.996 88.2482 24.242 87.6762 23.67C87.1172 23.085 86.3892 22.799 85.5182 22.799C84.6342 22.799 83.8932 23.085 83.2952 23.67C82.7102 24.242 82.4112 24.996 82.4112 25.945C82.4112 26.894 82.7102 27.661 83.2952 28.246C83.8932 28.831 84.6342 29.13 85.5182 29.13C86.7272 29.13 87.8062 28.558 88.3132 27.518L87.8192 27.336C87.5852 27.245 87.4162 27.167 87.2992 27.128C86.9742 27.713 86.2982 28.064 85.5572 28.064C84.5172 28.064 83.7372 27.414 83.5942 26.413H88.5212C88.5342 26.322 88.5342 26.166 88.5342 25.945ZM91.6758 20.641H90.4928V22.929H89.4008V23.93H90.4928V29H91.6758V23.93H92.9628V22.929H91.6758V20.641ZM98.6092 29V22.929H97.4392V29H98.6092ZM97.4392 21.239C97.7642 21.538 98.2842 21.538 98.5962 21.239C98.9212 20.94 98.9212 20.446 98.5962 20.147C98.2842 19.848 97.7642 19.848 97.4392 20.147C97.1272 20.446 97.1272 20.94 97.4392 21.239ZM101.771 25.724C101.771 24.528 102.538 23.956 103.487 23.956C104.319 23.956 104.826 24.567 104.826 25.568V29H106.009V25.49C106.009 23.774 105.177 22.799 103.669 22.799C102.928 22.799 102.122 23.163 101.771 23.839V22.929H100.588V29H101.771V25.724ZM110.887 25.945C110.887 26.894 111.199 27.661 111.81 28.246C112.421 28.831 113.175 29.13 114.059 29.13C114.943 29.13 115.697 28.831 116.308 28.246C116.932 27.648 117.244 26.881 117.244 25.945C117.244 25.009 116.932 24.255 116.321 23.67C115.71 23.085 114.956 22.799 114.059 22.799C113.162 22.799 112.408 23.085 111.797 23.67C111.186 24.255 110.887 25.009 110.887 25.945ZM116.061 25.945C116.061 26.556 115.866 27.05 115.476 27.427C115.099 27.804 114.618 27.986 114.059 27.986C113.5 27.986 113.019 27.804 112.629 27.427C112.252 27.05 112.057 26.556 112.057 25.945C112.057 25.347 112.252 24.866 112.629 24.502C113.019 24.138 113.5 23.956 114.059 23.956C114.618 23.956 115.099 24.138 115.476 24.502C115.866 24.866 116.061 25.347 116.061 25.945ZM120.001 25.724C120.001 24.528 120.768 23.956 121.717 23.956C122.549 23.956 123.056 24.567 123.056 25.568V29H124.239V25.49C124.239 23.774 123.407 22.799 121.899 22.799C121.158 22.799 120.352 23.163 120.001 23.839V22.929H118.818V29H120.001V25.724Z" fill="white"/>
<path d="M42.043 35.4609L29.1523 22.5117L45.5586 31.9453L42.043 35.4609ZM25.7539 21.75C24.8945 22.1797 24.4648 22.8633 24.4648 23.8008V49.6992C24.4648 50.6367 24.8945 51.3203 25.7539 51.75L40.8125 36.75L25.7539 21.75ZM50.6562 34.9922L47.1992 32.9414L43.3906 36.75L47.1992 40.5L50.7148 38.5078C51.2617 38.1172 51.5156 37.5312 51.4766 36.75C51.4766 35.9688 51.2031 35.3828 50.6562 34.9922ZM29.1523 50.9883L45.5586 41.5547L42.043 38.0391L29.1523 50.9883Z" fill="white"/>
<path d="M82.08 39.304C81.04 38.328 79.792 37.848 78.352 37.848C76.8 37.848 75.472 38.392 74.4 39.496C73.328 40.6 72.784 41.928 72.784 43.512C72.784 45.08 73.328 46.408 74.4 47.512C75.472 48.616 76.8 49.16 78.352 49.16C81.6 49.16 83.568 47.24 83.568 43.464H78.736V44.76H81.872C81.824 45.672 81.488 46.392 80.832 46.936C80.176 47.464 79.36 47.736 78.352 47.736C77.216 47.736 76.24 47.32 75.456 46.504C74.672 45.688 74.272 44.68 74.272 43.512C74.272 42.344 74.672 41.336 75.456 40.52C76.24 39.688 77.216 39.272 78.352 39.272C79.36 39.272 80.24 39.608 81.008 40.296L82.08 39.304ZM84.8138 45.24C84.8138 46.408 85.1978 47.352 85.9498 48.072C86.7018 48.792 87.6298 49.16 88.7178 49.16C89.8058 49.16 90.7338 48.792 91.4858 48.072C92.2538 47.336 92.6378 46.392 92.6378 45.24C92.6378 44.088 92.2538 43.16 91.5018 42.44C90.7498 41.72 89.8218 41.368 88.7178 41.368C87.6138 41.368 86.6858 41.72 85.9338 42.44C85.1818 43.16 84.8138 44.088 84.8138 45.24ZM91.1818 45.24C91.1818 45.992 90.9418 46.6 90.4618 47.064C89.9978 47.528 89.4058 47.752 88.7178 47.752C88.0298 47.752 87.4378 47.528 86.9578 47.064C86.4938 46.6 86.2538 45.992 86.2538 45.24C86.2538 44.504 86.4938 43.912 86.9578 43.464C87.4378 43.016 88.0298 42.792 88.7178 42.792C89.4058 42.792 89.9978 43.016 90.4618 43.464C90.9418 43.912 91.1818 44.504 91.1818 45.24ZM94.0794 45.24C94.0794 46.408 94.4634 47.352 95.2154 48.072C95.9674 48.792 96.8954 49.16 97.9834 49.16C99.0714 49.16 99.9994 48.792 100.751 48.072C101.519 47.336 101.903 46.392 101.903 45.24C101.903 44.088 101.519 43.16 100.767 42.44C100.015 41.72 99.0874 41.368 97.9834 41.368C96.8794 41.368 95.9514 41.72 95.1994 42.44C94.4474 43.16 94.0794 44.088 94.0794 45.24ZM100.447 45.24C100.447 45.992 100.207 46.6 99.7274 47.064C99.2634 47.528 98.6714 47.752 97.9834 47.752C97.2954 47.752 96.7034 47.528 96.2234 47.064C95.7594 46.6 95.5194 45.992 95.5194 45.24C95.5194 44.504 95.7594 43.912 96.2234 43.464C96.7034 43.016 97.2954 42.792 97.9834 42.792C98.6714 42.792 99.2634 43.016 99.7274 43.464C100.207 43.912 100.447 44.504 100.447 45.24ZM104.385 50.376C104.033 50.568 103.825 50.68 103.745 50.712C104.449 51.992 105.713 52.728 107.121 52.728C109.841 52.728 111.201 51.112 111.201 47.864V41.528H109.761V42.696C109.297 41.864 108.225 41.368 107.137 41.368C106.081 41.368 105.185 41.736 104.449 42.456C103.713 43.176 103.345 44.12 103.345 45.288C103.345 46.44 103.713 47.368 104.449 48.088C105.185 48.808 106.081 49.16 107.137 49.16C108.225 49.16 109.329 48.632 109.761 47.784C109.761 47.832 109.777 47.912 109.777 47.96C109.777 50.216 108.897 51.352 107.121 51.352C106.273 51.352 105.393 50.888 104.961 50.072L104.385 50.376ZM109.745 45.272C109.745 46.024 109.489 46.616 108.993 47.064C108.497 47.512 107.921 47.736 107.265 47.736C106.577 47.736 105.985 47.512 105.521 47.064C105.057 46.616 104.833 46.024 104.833 45.272C104.833 44.552 105.073 43.96 105.537 43.496C106.001 43.032 106.577 42.792 107.265 42.792C107.953 42.792 108.545 43.016 109.025 43.464C109.505 43.896 109.745 44.504 109.745 45.272ZM113.622 49H115.078V37.464H113.622V49ZM118.473 44.68C118.649 43.448 119.577 42.68 120.841 42.68C122.057 42.68 122.937 43.448 123.113 44.68H118.473ZM124.553 45.24C124.553 44.072 124.201 43.144 123.497 42.44C122.809 41.72 121.913 41.368 120.841 41.368C119.753 41.368 118.841 41.72 118.105 42.44C117.385 43.144 117.017 44.072 117.017 45.24C117.017 46.408 117.385 47.352 118.105 48.072C118.841 48.792 119.753 49.16 120.841 49.16C122.329 49.16 123.657 48.456 124.281 47.176L123.673 46.952C123.385 46.84 123.177 46.744 123.033 46.696C122.633 47.416 121.801 47.848 120.889 47.848C119.609 47.848 118.649 47.048 118.473 45.816H124.537C124.553 45.704 124.553 45.512 124.553 45.24ZM130.848 49H132.352V44.872H135.248C136.336 44.872 137.152 44.536 137.696 43.88C138.256 43.208 138.528 42.392 138.528 41.432C138.528 40.472 138.256 39.656 137.696 38.984C137.152 38.312 136.336 37.976 135.248 37.976H130.848V49ZM135.232 39.368C136.432 39.368 137.04 40.296 137.04 41.432C137.04 42.568 136.416 43.48 135.152 43.48H132.352V39.368H135.232ZM140.263 49H141.719V37.464H140.263V49ZM151.514 49V41.528H150.074V42.648C149.61 41.832 148.538 41.368 147.45 41.368C146.394 41.368 145.498 41.72 144.762 42.44C144.026 43.16 143.658 44.088 143.658 45.256C143.658 46.408 144.026 47.352 144.762 48.072C145.498 48.792 146.394 49.16 147.45 49.16C148.538 49.16 149.578 48.68 150.074 47.848V49H151.514ZM150.058 45.24C150.058 46.008 149.818 46.616 149.338 47.064C148.858 47.512 148.266 47.736 147.578 47.736C146.89 47.736 146.314 47.496 145.85 47.032C145.386 46.568 145.146 45.96 145.146 45.24C145.146 44.52 145.37 43.928 145.834 43.48C146.298 43.016 146.89 42.792 147.578 42.792C148.234 42.792 148.81 43.016 149.306 43.448C149.802 43.88 150.058 44.488 150.058 45.24ZM160.606 41.528H159.054L156.814 46.936L154.574 41.528H153.022L156.014 48.776L154.446 52.632H155.966L160.606 41.528Z" fill="white"/>
</svg>
